<svg xmlns="http://www.w3.org/2000/svg" xmlns:xlink="http://www.w3.org/1999/xlink" width="100" zoomAndPan="magnify" viewBox="0 0 75 74.999997" height="100" preserveAspectRatio="xMidYMid meet" version="1.0"><defs><clipPath id="id1"><path d="M 0 23 L 75 23 L 75 60.339844 L 0 60.339844 Z M 0 23 " clip-rule="nonzero"/></clipPath></defs><g clip-path="url(#id1)"><path fill="#ffffff" d="M 22.226562 33.464844 C 22.226562 33.464844 30.683594 25.953125 37.15625 25.242188 C 43.640625 24.515625 51.097656 24.738281 52.863281 25.460938 C 54.617188 26.1875 55.21875 32.960938 55.21875 32.960938 C 55.21875 32.960938 22.558594 34.410156 22.226562 33.464844 Z M 12.847656 46.472656 C 15.980469 46.472656 18.523438 49.046875 18.523438 52.230469 C 18.523438 55.402344 15.980469 57.984375 12.847656 57.984375 C 9.707031 57.984375 7.164062 55.402344 7.164062 52.230469 C 7.164062 49.046875 9.707031 46.472656 12.847656 46.472656 Z M 12.847656 44.117188 C 17.269531 44.117188 20.859375 47.742188 20.859375 52.230469 C 20.859375 56.703125 17.269531 60.339844 12.847656 60.339844 C 8.417969 60.339844 4.839844 56.703125 4.839844 52.230469 C 4.839844 47.742188 8.417969 44.117188 12.847656 44.117188 Z M 64.234375 46.472656 C 67.367188 46.472656 69.90625 49.046875 69.90625 52.230469 C 69.90625 55.402344 67.367188 57.984375 64.234375 57.984375 C 61.089844 57.984375 58.546875 55.402344 58.546875 52.230469 C 58.546875 49.046875 61.089844 46.472656 64.234375 46.472656 Z M 64.234375 44.117188 C 68.652344 44.117188 72.242188 47.742188 72.242188 52.230469 C 72.242188 56.703125 68.652344 60.339844 64.234375 60.339844 C 59.804688 60.339844 56.222656 56.703125 56.222656 52.230469 C 56.222656 47.742188 59.804688 44.117188 64.234375 44.117188 Z M 3.191406 54.433594 C 3.191406 54.433594 0.554688 53.878906 0.285156 53.382812 C 0.0078125 52.878906 0.339844 45.484375 0.722656 44.652344 C 1.105469 43.8125 1.875 42.425781 1.875 42.425781 C 1.875 42.425781 2.539062 39.539062 5.492188 37.425781 C 8.460938 35.316406 13.078125 35.03125 16.035156 33.8125 C 19 32.59375 26.355469 26.972656 30.691406 25.304688 C 35.027344 23.644531 40.746094 22.855469 47 23.085938 C 53.257812 23.308594 65.945312 24.472656 66.484375 24.976562 C 67.035156 25.472656 69.898438 30.859375 70.664062 33.308594 C 71.433594 35.757812 71.214844 37.867188 71.597656 39.316406 C 71.980469 40.757812 74.121094 42.320312 74.554688 45.703125 C 75 49.097656 73.683594 53.214844 73.683594 53.214844 L 72.988281 53.269531 C 73.050781 52.859375 73.070312 52.429688 73.070312 52.007812 C 73.070312 46.902344 68.996094 42.761719 63.953125 42.761719 C 58.910156 42.761719 54.824219 46.902344 54.824219 52.007812 C 54.824219 52.941406 54.957031 53.847656 55.21875 54.695312 L 55.011719 54.71875 L 22.238281 54.875 L 21.894531 54.875 C 22.101562 54.078125 22.21875 53.238281 22.21875 52.375 C 22.21875 47.070312 17.964844 42.761719 12.714844 42.761719 C 7.476562 42.761719 3.222656 47.070312 3.222656 52.375 C 3.222656 53.089844 3.292969 53.773438 3.441406 54.445312 L 3.191406 54.433594 " fill-opacity="1" fill-rule="evenodd"/></g></svg>