<svg xmlns="http://www.w3.org/2000/svg" xmlns:xlink="http://www.w3.org/1999/xlink" width="1920" zoomAndPan="magnify" viewBox="0 0 1440 419.999985" height="560" preserveAspectRatio="xMidYMid meet" version="1.0"><defs><clipPath id="id1"><path d="M 0 329.59375 L 404.25 329.59375 L 404.25 420 L 0 420 Z M 0 329.59375 " clip-rule="nonzero"/></clipPath><clipPath id="id2"><path d="M 0 341 L 404.25 341 L 404.25 409 L 0 409 Z M 0 341 " clip-rule="nonzero"/></clipPath><clipPath id="id3"><path d="M 403.503906 329.59375 L 807.753906 329.59375 L 807.753906 420 L 403.503906 420 Z M 403.503906 329.59375 " clip-rule="nonzero"/></clipPath><clipPath id="id4"><path d="M 403.503906 341 L 807.753906 341 L 807.753906 409 L 403.503906 409 Z M 403.503906 341 " clip-rule="nonzero"/></clipPath><clipPath id="id5"><path d="M 806.257812 329.59375 L 1210.507812 329.59375 L 1210.507812 420 L 806.257812 420 Z M 806.257812 329.59375 " clip-rule="nonzero"/></clipPath><clipPath id="id6"><path d="M 806.257812 341 L 1210.507812 341 L 1210.507812 409 L 806.257812 409 Z M 806.257812 341 " clip-rule="nonzero"/></clipPath><clipPath id="id7"><path d="M 1208.261719 329.59375 L 1440 329.59375 L 1440 420 L 1208.261719 420 Z M 1208.261719 329.59375 " clip-rule="nonzero"/></clipPath><clipPath id="id8"><path d="M 1208.261719 341 L 1440 341 L 1440 409 L 1208.261719 409 Z M 1208.261719 341 " clip-rule="nonzero"/></clipPath></defs><g clip-path="url(#id1)"><path fill="#ffffff" d="M 404.25 408.152344 L 0 408.152344 L 0 420.050781 L 404.25 420.050781 Z M 404.25 329.867188 L 0 329.867188 L 0 341.765625 L 404.25 341.765625 Z M 404.25 329.867188 " fill-opacity="1" fill-rule="evenodd"/></g><g clip-path="url(#id2)"><path fill="#041559" d="M -0.00390625 341.765625 L 404.242188 341.765625 L 404.242188 408.140625 L -0.00390625 408.140625 Z M -0.00390625 341.765625 " fill-opacity="1" fill-rule="evenodd"/></g><path fill="#ffffff" d="M 378.984375 374.96875 C 378.984375 371.851562 376.46875 369.324219 373.367188 369.324219 L 334.070312 369.324219 C 330.96875 369.324219 328.453125 371.851562 328.453125 374.96875 C 328.453125 378.066406 330.96875 380.59375 334.070312 380.59375 L 373.367188 380.59375 C 376.46875 380.59375 378.984375 378.066406 378.984375 374.96875 Z M 277.921875 374.96875 C 277.921875 371.851562 275.40625 369.324219 272.304688 369.324219 L 233.007812 369.324219 C 229.90625 369.324219 227.390625 371.851562 227.390625 374.96875 C 227.390625 378.066406 229.90625 380.59375 233.007812 380.59375 L 272.304688 380.59375 C 275.40625 380.59375 277.921875 378.066406 277.921875 374.96875 Z M 176.859375 374.96875 C 176.859375 371.851562 174.34375 369.324219 171.242188 369.324219 L 131.945312 369.324219 C 128.84375 369.324219 126.328125 371.851562 126.328125 374.96875 C 126.328125 378.066406 128.84375 380.59375 131.945312 380.59375 L 171.242188 380.59375 C 174.34375 380.59375 176.859375 378.066406 176.859375 374.96875 Z M 75.796875 374.96875 C 75.796875 371.851562 73.28125 369.324219 70.179688 369.324219 L 30.882812 369.324219 C 27.78125 369.324219 25.265625 371.851562 25.265625 374.96875 C 25.265625 378.066406 27.78125 380.59375 30.882812 380.59375 L 70.179688 380.59375 C 73.28125 380.59375 75.796875 378.066406 75.796875 374.96875 Z M 75.796875 374.96875 " fill-opacity="1" fill-rule="evenodd"/><g clip-path="url(#id3)"><path fill="#ffffff" d="M 807.753906 408.152344 L 403.503906 408.152344 L 403.503906 420.050781 L 807.753906 420.050781 Z M 807.753906 329.867188 L 403.503906 329.867188 L 403.503906 341.765625 L 807.753906 341.765625 Z M 807.753906 329.867188 " fill-opacity="1" fill-rule="evenodd"/></g><g clip-path="url(#id4)"><path fill="#041559" d="M 403.5 341.765625 L 807.746094 341.765625 L 807.746094 408.140625 L 403.5 408.140625 Z M 403.5 341.765625 " fill-opacity="1" fill-rule="evenodd"/></g><path fill="#ffffff" d="M 782.488281 374.96875 C 782.488281 371.851562 779.972656 369.324219 776.871094 369.324219 L 737.570312 369.324219 C 734.472656 369.324219 731.957031 371.851562 731.957031 374.96875 C 731.957031 378.066406 734.472656 380.59375 737.570312 380.59375 L 776.871094 380.59375 C 779.972656 380.59375 782.488281 378.066406 782.488281 374.96875 Z M 681.425781 374.96875 C 681.425781 371.851562 678.910156 369.324219 675.808594 369.324219 L 636.507812 369.324219 C 633.410156 369.324219 630.894531 371.851562 630.894531 374.96875 C 630.894531 378.066406 633.410156 380.59375 636.507812 380.59375 L 675.808594 380.59375 C 678.910156 380.59375 681.425781 378.066406 681.425781 374.96875 Z M 580.363281 374.96875 C 580.363281 371.851562 577.847656 369.324219 574.746094 369.324219 L 535.445312 369.324219 C 532.347656 369.324219 529.832031 371.851562 529.832031 374.96875 C 529.832031 378.066406 532.347656 380.59375 535.445312 380.59375 L 574.746094 380.59375 C 577.847656 380.59375 580.363281 378.066406 580.363281 374.96875 Z M 479.300781 374.96875 C 479.300781 371.851562 476.785156 369.324219 473.683594 369.324219 L 434.382812 369.324219 C 431.285156 369.324219 428.769531 371.851562 428.769531 374.96875 C 428.769531 378.066406 431.285156 380.59375 434.382812 380.59375 L 473.683594 380.59375 C 476.785156 380.59375 479.300781 378.066406 479.300781 374.96875 Z M 479.300781 374.96875 " fill-opacity="1" fill-rule="evenodd"/><g clip-path="url(#id5)"><path fill="#ffffff" d="M 1210.507812 408.152344 L 806.257812 408.152344 L 806.257812 420.050781 L 1210.507812 420.050781 Z M 1210.507812 329.867188 L 806.257812 329.867188 L 806.257812 341.765625 L 1210.507812 341.765625 Z M 1210.507812 329.867188 " fill-opacity="1" fill-rule="evenodd"/></g><g clip-path="url(#id6)"><path fill="#041559" d="M 806.253906 341.765625 L 1210.5 341.765625 L 1210.5 408.140625 L 806.253906 408.140625 Z M 806.253906 341.765625 " fill-opacity="1" fill-rule="evenodd"/></g><path fill="#ffffff" d="M 1185.242188 374.96875 C 1185.242188 371.851562 1182.726562 369.324219 1179.625 369.324219 L 1140.324219 369.324219 C 1137.226562 369.324219 1134.710938 371.851562 1134.710938 374.96875 C 1134.710938 378.066406 1137.226562 380.59375 1140.324219 380.59375 L 1179.625 380.59375 C 1182.726562 380.59375 1185.242188 378.066406 1185.242188 374.96875 Z M 1084.179688 374.96875 C 1084.179688 371.851562 1081.664062 369.324219 1078.5625 369.324219 L 1039.261719 369.324219 C 1036.164062 369.324219 1033.648438 371.851562 1033.648438 374.96875 C 1033.648438 378.066406 1036.164062 380.59375 1039.261719 380.59375 L 1078.5625 380.59375 C 1081.664062 380.59375 1084.179688 378.066406 1084.179688 374.96875 Z M 983.117188 374.96875 C 983.117188 371.851562 980.601562 369.324219 977.5 369.324219 L 938.199219 369.324219 C 935.101562 369.324219 932.585938 371.851562 932.585938 374.96875 C 932.585938 378.066406 935.101562 380.59375 938.199219 380.59375 L 977.5 380.59375 C 980.601562 380.59375 983.117188 378.066406 983.117188 374.96875 Z M 882.054688 374.96875 C 882.054688 371.851562 879.539062 369.324219 876.4375 369.324219 L 837.136719 369.324219 C 834.039062 369.324219 831.523438 371.851562 831.523438 374.96875 C 831.523438 378.066406 834.039062 380.59375 837.136719 380.59375 L 876.4375 380.59375 C 879.539062 380.59375 882.054688 378.066406 882.054688 374.96875 Z M 882.054688 374.96875 " fill-opacity="1" fill-rule="evenodd"/><g clip-path="url(#id7)"><path fill="#ffffff" d="M 1612.507812 408.152344 L 1208.261719 408.152344 L 1208.261719 420.050781 L 1612.507812 420.050781 Z M 1612.507812 329.867188 L 1208.261719 329.867188 L 1208.261719 341.765625 L 1612.507812 341.765625 Z M 1612.507812 329.867188 " fill-opacity="1" fill-rule="evenodd"/></g><g clip-path="url(#id8)"><path fill="#041559" d="M 1208.253906 341.765625 L 1612.503906 341.765625 L 1612.503906 408.140625 L 1208.253906 408.140625 Z M 1208.253906 341.765625 " fill-opacity="1" fill-rule="evenodd"/></g><path fill="#ffffff" d="M 1587.242188 374.96875 C 1587.242188 371.851562 1584.730469 369.324219 1581.628906 369.324219 L 1542.328125 369.324219 C 1539.226562 369.324219 1536.710938 371.851562 1536.710938 374.96875 C 1536.710938 378.066406 1539.226562 380.59375 1542.328125 380.59375 L 1581.628906 380.59375 C 1584.730469 380.59375 1587.242188 378.066406 1587.242188 374.96875 Z M 1486.179688 374.96875 C 1486.179688 371.851562 1483.667969 369.324219 1480.566406 369.324219 L 1441.265625 369.324219 C 1438.164062 369.324219 1435.652344 371.851562 1435.652344 374.96875 C 1435.652344 378.066406 1438.164062 380.59375 1441.265625 380.59375 L 1480.566406 380.59375 C 1483.667969 380.59375 1486.179688 378.066406 1486.179688 374.96875 Z M 1385.121094 374.96875 C 1385.121094 371.851562 1382.605469 369.324219 1379.503906 369.324219 L 1340.203125 369.324219 C 1337.101562 369.324219 1334.589844 371.851562 1334.589844 374.96875 C 1334.589844 378.066406 1337.101562 380.59375 1340.203125 380.59375 L 1379.503906 380.59375 C 1382.605469 380.59375 1385.121094 378.066406 1385.121094 374.96875 Z M 1284.058594 374.96875 C 1284.058594 371.851562 1281.542969 369.324219 1278.441406 369.324219 L 1239.140625 369.324219 C 1236.039062 369.324219 1233.527344 371.851562 1233.527344 374.96875 C 1233.527344 378.066406 1236.039062 380.59375 1239.140625 380.59375 L 1278.441406 380.59375 C 1281.542969 380.59375 1284.058594 378.066406 1284.058594 374.96875 Z M 1284.058594 374.96875 " fill-opacity="1" fill-rule="evenodd"/></svg>