<svg xmlns="http://www.w3.org/2000/svg" xmlns:xlink="http://www.w3.org/1999/xlink" width="1920" zoomAndPan="magnify" viewBox="0 0 1440 419.999985" height="560" preserveAspectRatio="xMidYMid meet" version="1.0"><defs><clipPath id="id1"><path d="M 770.25 316 L 846 316 L 846 330.675781 L 770.25 330.675781 Z M 770.25 316 " clip-rule="nonzero"/></clipPath><clipPath id="id2"><path d="M 770.25 130.425781 L 846 130.425781 L 846 207 L 770.25 207 Z M 770.25 130.425781 " clip-rule="nonzero"/></clipPath></defs><path fill="#ffffff" d="M 804.683594 213.3125 L 804.683594 261.578125 L 811.566406 261.578125 L 811.566406 213.3125 L 804.683594 213.3125 " fill-opacity="1" fill-rule="nonzero"/><g clip-path="url(#id1)"><path fill="#ffffff" d="M 818.453125 316.738281 L 797.796875 316.738281 L 797.796875 323.632812 L 770.25 323.632812 L 770.25 330.527344 L 846 330.527344 L 846 323.632812 L 818.453125 323.632812 L 818.453125 316.738281 " fill-opacity="1" fill-rule="nonzero"/></g><path fill="#ffffff" d="M 797.796875 271.921875 L 797.796875 309.84375 L 818.453125 309.84375 L 818.453125 271.921875 C 818.453125 270.023438 816.90625 268.472656 815.011719 268.472656 L 801.238281 268.472656 C 799.34375 268.472656 797.796875 270.023438 797.796875 271.921875 " fill-opacity="1" fill-rule="nonzero"/><path fill="#ffffff" d="M 811.566406 144.367188 L 794.351562 144.367188 L 794.351562 165.050781 L 811.566406 165.050781 C 817.269531 165.050781 821.898438 160.417969 821.898438 154.707031 C 821.898438 148.996094 817.269531 144.367188 811.566406 144.367188 " fill-opacity="1" fill-rule="nonzero"/><g clip-path="url(#id2)"><path fill="#ffffff" d="M 811.566406 171.945312 L 794.351562 171.945312 L 794.351562 199.523438 L 787.464844 199.523438 L 787.464844 140.917969 C 787.464844 139.019531 789.011719 137.46875 790.910156 137.46875 L 811.566406 137.46875 C 821.0625 137.46875 828.785156 145.199219 828.785156 154.707031 C 828.785156 164.214844 821.0625 171.945312 811.566406 171.945312 Z M 842.558594 130.574219 L 773.691406 130.574219 C 771.796875 130.574219 770.25 132.125 770.25 134.023438 L 770.25 202.972656 C 770.25 204.871094 771.796875 206.417969 773.691406 206.417969 L 842.558594 206.417969 C 844.453125 206.417969 846 204.871094 846 202.972656 L 846 134.023438 C 846 132.125 844.453125 130.574219 842.558594 130.574219 " fill-opacity="1" fill-rule="nonzero"/></g></svg>