<svg xmlns="http://www.w3.org/2000/svg" xmlns:xlink="http://www.w3.org/1999/xlink" width="1920" zoomAndPan="magnify" viewBox="0 0 1440 419.999985" height="560" preserveAspectRatio="xMidYMid meet" version="1.0"><defs><clipPath id="id1"><path d="M 0 329.59375 L 404.25 329.59375 L 404.25 420 L 0 420 Z M 0 329.59375 " clip-rule="nonzero"/></clipPath><clipPath id="id2"><path d="M 0 341 L 404.25 341 L 404.25 409 L 0 409 Z M 0 341 " clip-rule="nonzero"/></clipPath><clipPath id="id3"><path d="M 404.253906 329.59375 L 808.503906 329.59375 L 808.503906 420 L 404.253906 420 Z M 404.253906 329.59375 " clip-rule="nonzero"/></clipPath><clipPath id="id4"><path d="M 404.253906 341 L 808.503906 341 L 808.503906 409 L 404.253906 409 Z M 404.253906 341 " clip-rule="nonzero"/></clipPath><clipPath id="id5"><path d="M 808.507812 329.59375 L 1212.757812 329.59375 L 1212.757812 420 L 808.507812 420 Z M 808.507812 329.59375 " clip-rule="nonzero"/></clipPath><clipPath id="id6"><path d="M 808.507812 341 L 1212.757812 341 L 1212.757812 409 L 808.507812 409 Z M 808.507812 341 " clip-rule="nonzero"/></clipPath><clipPath id="id7"><path d="M 245 229.480469 L 361.96875 229.480469 L 361.96875 280 L 245 280 Z M 245 229.480469 " clip-rule="nonzero"/></clipPath><clipPath id="id8"><path d="M 258 245.726562 L 349 245.726562 L 349 329.980469 L 258 329.980469 Z M 258 245.726562 " clip-rule="nonzero"/></clipPath><clipPath id="id9"><path d="M 0 100.957031 L 66.640625 100.957031 L 66.640625 334.023438 L 0 334.023438 Z M 0 100.957031 " clip-rule="nonzero"/></clipPath><clipPath id="id10"><path d="M 1212.761719 329.59375 L 1440 329.59375 L 1440 420 L 1212.761719 420 Z M 1212.761719 329.59375 " clip-rule="nonzero"/></clipPath><clipPath id="id11"><path d="M 1212.761719 341 L 1440 341 L 1440 409 L 1212.761719 409 Z M 1212.761719 341 " clip-rule="nonzero"/></clipPath><clipPath id="id12"><path d="M 99.84375 162.34375 L 219.84375 162.34375 L 219.84375 330.34375 L 99.84375 330.34375 Z M 99.84375 162.34375 " clip-rule="nonzero"/></clipPath><clipPath id="id13"><path d="M 395.03125 166.84375 L 515.03125 166.84375 L 515.03125 334.84375 L 395.03125 334.84375 Z M 395.03125 166.84375 " clip-rule="nonzero"/></clipPath><clipPath id="id14"><path d="M 531.4375 210 L 622.9375 210 L 622.9375 338.25 L 531.4375 338.25 Z M 531.4375 210 " clip-rule="nonzero"/></clipPath><clipPath id="id15"><path d="M 654.277344 100.957031 L 785.429688 100.957031 L 785.429688 334.023438 L 654.277344 334.023438 Z M 654.277344 100.957031 " clip-rule="nonzero"/></clipPath><clipPath id="id16"><path d="M 970.132812 230.09375 L 1087 230.09375 L 1087 281 L 970.132812 281 Z M 970.132812 230.09375 " clip-rule="nonzero"/></clipPath><clipPath id="id17"><path d="M 983 246.34375 L 1074 246.34375 L 1074 330.59375 L 983 330.59375 Z M 983 246.34375 " clip-rule="nonzero"/></clipPath><clipPath id="id18"><path d="M 825.007812 162.960938 L 945 162.960938 L 945 330.960938 L 825.007812 330.960938 Z M 825.007812 162.960938 " clip-rule="nonzero"/></clipPath><clipPath id="id19"><path d="M 1120.191406 167.460938 L 1240.191406 167.460938 L 1240.191406 335.460938 L 1120.191406 335.460938 Z M 1120.191406 167.460938 " clip-rule="nonzero"/></clipPath><clipPath id="id20"><path d="M 1256.601562 210.617188 L 1348.101562 210.617188 L 1348.101562 338.867188 L 1256.601562 338.867188 Z M 1256.601562 210.617188 " clip-rule="nonzero"/></clipPath><clipPath id="id21"><path d="M 1370.542969 100.957031 L 1440 100.957031 L 1440 334.023438 L 1370.542969 334.023438 Z M 1370.542969 100.957031 " clip-rule="nonzero"/></clipPath></defs><rect x="-144" width="1728" fill="#ffffff" y="-41.999998" height="503.999982" fill-opacity="1"/><rect x="-144" width="1728" fill="#041559" y="-41.999998" height="503.999982" fill-opacity="1"/><rect x="-144" width="1728" fill="#ffffff" y="-41.999998" height="503.999982" fill-opacity="1"/><rect x="-144" width="1728" fill="#041559" y="-41.999998" height="503.999982" fill-opacity="1"/><g clip-path="url(#id1)"><path fill="#ffffff" d="M 404.25 408.152344 L 0 408.152344 L 0 420.050781 L 404.25 420.050781 Z M 404.25 329.867188 L 0 329.867188 L 0 341.765625 L 404.25 341.765625 Z M 404.25 329.867188 " fill-opacity="1" fill-rule="evenodd"/></g><g clip-path="url(#id2)"><path fill="#041559" d="M -0.00390625 341.765625 L 404.242188 341.765625 L 404.242188 408.140625 L -0.00390625 408.140625 Z M -0.00390625 341.765625 " fill-opacity="1" fill-rule="evenodd"/></g><path fill="#ffffff" d="M 378.984375 374.96875 C 378.984375 371.851562 376.46875 369.324219 373.367188 369.324219 L 334.070312 369.324219 C 330.96875 369.324219 328.453125 371.851562 328.453125 374.96875 C 328.453125 378.066406 330.96875 380.59375 334.070312 380.59375 L 373.367188 380.59375 C 376.46875 380.59375 378.984375 378.066406 378.984375 374.96875 Z M 277.921875 374.96875 C 277.921875 371.851562 275.40625 369.324219 272.304688 369.324219 L 233.007812 369.324219 C 229.90625 369.324219 227.390625 371.851562 227.390625 374.96875 C 227.390625 378.066406 229.90625 380.59375 233.007812 380.59375 L 272.304688 380.59375 C 275.40625 380.59375 277.921875 378.066406 277.921875 374.96875 Z M 176.859375 374.96875 C 176.859375 371.851562 174.34375 369.324219 171.242188 369.324219 L 131.945312 369.324219 C 128.84375 369.324219 126.328125 371.851562 126.328125 374.96875 C 126.328125 378.066406 128.84375 380.59375 131.945312 380.59375 L 171.242188 380.59375 C 174.34375 380.59375 176.859375 378.066406 176.859375 374.96875 Z M 75.796875 374.96875 C 75.796875 371.851562 73.28125 369.324219 70.179688 369.324219 L 30.882812 369.324219 C 27.78125 369.324219 25.265625 371.851562 25.265625 374.96875 C 25.265625 378.066406 27.78125 380.59375 30.882812 380.59375 L 70.179688 380.59375 C 73.28125 380.59375 75.796875 378.066406 75.796875 374.96875 Z M 75.796875 374.96875 " fill-opacity="1" fill-rule="evenodd"/><g clip-path="url(#id3)"><path fill="#ffffff" d="M 808.503906 408.152344 L 404.253906 408.152344 L 404.253906 420.050781 L 808.503906 420.050781 Z M 808.503906 329.867188 L 404.253906 329.867188 L 404.253906 341.765625 L 808.503906 341.765625 Z M 808.503906 329.867188 " fill-opacity="1" fill-rule="evenodd"/></g><g clip-path="url(#id4)"><path fill="#041559" d="M 404.25 341.765625 L 808.496094 341.765625 L 808.496094 408.140625 L 404.25 408.140625 Z M 404.25 341.765625 " fill-opacity="1" fill-rule="evenodd"/></g><path fill="#ffffff" d="M 783.238281 374.96875 C 783.238281 371.851562 780.722656 369.324219 777.621094 369.324219 L 738.320312 369.324219 C 735.222656 369.324219 732.707031 371.851562 732.707031 374.96875 C 732.707031 378.066406 735.222656 380.59375 738.320312 380.59375 L 777.621094 380.59375 C 780.722656 380.59375 783.238281 378.066406 783.238281 374.96875 Z M 682.175781 374.96875 C 682.175781 371.851562 679.660156 369.324219 676.558594 369.324219 L 637.257812 369.324219 C 634.160156 369.324219 631.644531 371.851562 631.644531 374.96875 C 631.644531 378.066406 634.160156 380.59375 637.257812 380.59375 L 676.558594 380.59375 C 679.660156 380.59375 682.175781 378.066406 682.175781 374.96875 Z M 581.113281 374.96875 C 581.113281 371.851562 578.597656 369.324219 575.496094 369.324219 L 536.195312 369.324219 C 533.097656 369.324219 530.582031 371.851562 530.582031 374.96875 C 530.582031 378.066406 533.097656 380.59375 536.195312 380.59375 L 575.496094 380.59375 C 578.597656 380.59375 581.113281 378.066406 581.113281 374.96875 Z M 480.050781 374.96875 C 480.050781 371.851562 477.535156 369.324219 474.433594 369.324219 L 435.132812 369.324219 C 432.035156 369.324219 429.519531 371.851562 429.519531 374.96875 C 429.519531 378.066406 432.035156 380.59375 435.132812 380.59375 L 474.433594 380.59375 C 477.535156 380.59375 480.050781 378.066406 480.050781 374.96875 Z M 480.050781 374.96875 " fill-opacity="1" fill-rule="evenodd"/><g clip-path="url(#id5)"><path fill="#ffffff" d="M 1212.757812 408.152344 L 808.507812 408.152344 L 808.507812 420.050781 L 1212.757812 420.050781 Z M 1212.757812 329.867188 L 808.507812 329.867188 L 808.507812 341.765625 L 1212.757812 341.765625 Z M 1212.757812 329.867188 " fill-opacity="1" fill-rule="evenodd"/></g><g clip-path="url(#id6)"><path fill="#041559" d="M 808.503906 341.765625 L 1212.75 341.765625 L 1212.75 408.140625 L 808.503906 408.140625 Z M 808.503906 341.765625 " fill-opacity="1" fill-rule="evenodd"/></g><path fill="#ffffff" d="M 1187.492188 374.96875 C 1187.492188 371.851562 1184.976562 369.324219 1181.875 369.324219 L 1142.574219 369.324219 C 1139.476562 369.324219 1136.960938 371.851562 1136.960938 374.96875 C 1136.960938 378.066406 1139.476562 380.59375 1142.574219 380.59375 L 1181.875 380.59375 C 1184.976562 380.59375 1187.492188 378.066406 1187.492188 374.96875 Z M 1086.429688 374.96875 C 1086.429688 371.851562 1083.914062 369.324219 1080.8125 369.324219 L 1041.511719 369.324219 C 1038.414062 369.324219 1035.898438 371.851562 1035.898438 374.96875 C 1035.898438 378.066406 1038.414062 380.59375 1041.511719 380.59375 L 1080.8125 380.59375 C 1083.914062 380.59375 1086.429688 378.066406 1086.429688 374.96875 Z M 985.367188 374.96875 C 985.367188 371.851562 982.851562 369.324219 979.75 369.324219 L 940.449219 369.324219 C 937.351562 369.324219 934.835938 371.851562 934.835938 374.96875 C 934.835938 378.066406 937.351562 380.59375 940.449219 380.59375 L 979.75 380.59375 C 982.851562 380.59375 985.367188 378.066406 985.367188 374.96875 Z M 884.304688 374.96875 C 884.304688 371.851562 881.789062 369.324219 878.6875 369.324219 L 839.386719 369.324219 C 836.289062 369.324219 833.773438 371.851562 833.773438 374.96875 C 833.773438 378.066406 836.289062 380.59375 839.386719 380.59375 L 878.6875 380.59375 C 881.789062 380.59375 884.304688 378.066406 884.304688 374.96875 Z M 884.304688 374.96875 " fill-opacity="1" fill-rule="evenodd"/><g clip-path="url(#id7)"><path fill="#ffffff" d="M 354.386719 279.644531 L 303.75 243.957031 C 303.515625 243.796875 303.1875 243.796875 302.953125 243.957031 L 252.320312 279.644531 C 252 279.871094 251.574219 279.789062 251.355469 279.480469 L 245.382812 271.03125 C 245.164062 270.722656 245.238281 270.289062 245.546875 270.070312 L 302.953125 229.613281 C 303.1875 229.441406 303.515625 229.441406 303.75 229.613281 L 361.15625 270.070312 C 361.464844 270.289062 361.539062 270.722656 361.320312 271.03125 L 355.355469 279.480469 C 355.128906 279.789062 354.695312 279.871094 354.386719 279.644531 " fill-opacity="1" fill-rule="nonzero"/></g><g clip-path="url(#id8)"><path fill="#ffffff" d="M 298.058594 297.277344 L 285.359375 297.277344 C 284.980469 297.277344 284.671875 296.96875 284.671875 296.582031 L 284.671875 286.832031 C 284.671875 286.453125 284.980469 286.136719 285.359375 286.136719 L 298.058594 286.136719 C 298.441406 286.136719 298.757812 286.453125 298.757812 286.832031 L 298.757812 296.582031 C 298.757812 296.96875 298.441406 297.277344 298.058594 297.277344 Z M 298.058594 309.878906 L 285.359375 309.878906 C 284.980469 309.878906 284.671875 309.574219 284.671875 309.183594 L 284.671875 299.4375 C 284.671875 299.054688 284.980469 298.738281 285.359375 298.738281 L 298.058594 298.738281 C 298.441406 298.738281 298.757812 299.054688 298.757812 299.4375 L 298.757812 309.183594 C 298.757812 309.574219 298.441406 309.878906 298.058594 309.878906 Z M 282.511719 297.277344 L 269.8125 297.277344 C 269.429688 297.277344 269.121094 296.96875 269.121094 296.582031 L 269.121094 286.832031 C 269.121094 286.453125 269.429688 286.136719 269.8125 286.136719 L 282.511719 286.136719 C 282.890625 286.136719 283.199219 286.453125 283.199219 286.832031 L 283.199219 296.582031 C 283.199219 296.96875 282.890625 297.277344 282.511719 297.277344 Z M 282.511719 309.878906 L 269.8125 309.878906 C 269.429688 309.878906 269.121094 309.574219 269.121094 309.183594 L 269.121094 299.4375 C 269.121094 299.054688 269.429688 298.738281 269.8125 298.738281 L 282.511719 298.738281 C 282.890625 298.738281 283.199219 299.054688 283.199219 299.4375 L 283.199219 309.183594 C 283.199219 309.574219 282.890625 309.878906 282.511719 309.878906 Z M 302.953125 246.070312 L 258.457031 277.433594 C 258.273438 277.558594 258.164062 277.777344 258.164062 277.992188 L 258.164062 329.308594 C 258.164062 329.691406 258.472656 330 258.855469 330 L 325.15625 330 C 325.539062 330 325.847656 329.691406 325.847656 329.308594 L 325.847656 286.832031 C 325.847656 286.453125 326.164062 286.136719 326.542969 286.136719 L 343.058594 286.136719 C 343.4375 286.136719 343.746094 286.453125 343.746094 286.832031 L 343.746094 329.308594 C 343.746094 329.691406 344.0625 330 344.4375 330 L 347.847656 330 C 348.230469 330 348.539062 329.691406 348.539062 329.308594 L 348.539062 277.992188 C 348.539062 277.777344 348.429688 277.558594 348.25 277.433594 L 303.75 246.070312 C 303.515625 245.898438 303.1875 245.898438 302.953125 246.070312 " fill-opacity="1" fill-rule="nonzero"/></g><g clip-path="url(#id9)"><path fill="#ffffff" d="M -39.023438 261.957031 L -17.296875 261.957031 L -17.296875 283.734375 L -39.023438 283.734375 Z M -39.023438 232.695312 L -17.296875 232.695312 L -17.296875 254.453125 L -39.023438 254.453125 Z M -39.023438 203.414062 L -17.296875 203.414062 L -17.296875 225.191406 L -39.023438 225.191406 Z M -39.023438 174.136719 L -17.296875 174.136719 L -17.296875 195.914062 L -39.023438 195.914062 Z M -39.023438 144.875 L -17.296875 144.875 L -17.296875 166.632812 L -39.023438 166.632812 Z M -39.023438 115.59375 L -17.296875 115.59375 L -17.296875 137.355469 L -39.023438 137.355469 Z M -9.808594 261.957031 L 11.9375 261.957031 L 11.9375 283.734375 L -9.808594 283.734375 Z M -9.808594 232.695312 L 11.9375 232.695312 L 11.9375 254.453125 L -9.808594 254.453125 Z M -9.808594 203.414062 L 11.9375 203.414062 L 11.9375 225.191406 L -9.808594 225.191406 Z M -9.808594 174.136719 L 11.9375 174.136719 L 11.9375 195.914062 L -9.808594 195.914062 Z M -9.808594 144.875 L 11.9375 144.875 L 11.9375 166.632812 L -9.808594 166.632812 Z M -9.808594 115.59375 L 11.9375 115.59375 L 11.9375 137.355469 L -9.808594 137.355469 Z M 19.425781 261.957031 L 41.171875 261.957031 L 41.171875 283.734375 L 19.425781 283.734375 Z M 19.425781 232.695312 L 41.171875 232.695312 L 41.171875 254.453125 L 19.425781 254.453125 Z M 19.425781 203.414062 L 41.171875 203.414062 L 41.171875 225.191406 L 19.425781 225.191406 Z M 19.425781 174.136719 L 41.171875 174.136719 L 41.171875 195.914062 L 19.425781 195.914062 Z M 19.425781 144.875 L 41.171875 144.875 L 41.171875 166.632812 L 19.425781 166.632812 Z M 19.425781 115.59375 L 41.171875 115.59375 L 41.171875 137.355469 L 19.425781 137.355469 Z M 52.789062 321.261719 L 52.789062 101.867188 C 52.789062 101.375 52.371094 100.957031 51.859375 100.957031 L -49.734375 100.957031 C -50.242188 100.957031 -50.640625 101.375 -50.640625 101.867188 L -50.640625 321.261719 L -63.605469 321.261719 C -64.113281 321.261719 -64.511719 321.679688 -64.511719 322.171875 L -64.511719 333.441406 C -64.511719 333.769531 -64.242188 334.023438 -63.914062 334.023438 L 66.058594 334.023438 C 66.386719 334.023438 66.640625 333.769531 66.640625 333.441406 L 66.640625 322.171875 C 66.640625 321.679688 66.242188 321.261719 65.734375 321.261719 L 52.789062 321.261719 " fill-opacity="1" fill-rule="nonzero"/></g><g clip-path="url(#id10)"><path fill="#ffffff" d="M 1617.007812 408.152344 L 1212.761719 408.152344 L 1212.761719 420.050781 L 1617.007812 420.050781 Z M 1617.007812 329.867188 L 1212.761719 329.867188 L 1212.761719 341.765625 L 1617.007812 341.765625 Z M 1617.007812 329.867188 " fill-opacity="1" fill-rule="evenodd"/></g><g clip-path="url(#id11)"><path fill="#041559" d="M 1212.753906 341.765625 L 1617.003906 341.765625 L 1617.003906 408.140625 L 1212.753906 408.140625 Z M 1212.753906 341.765625 " fill-opacity="1" fill-rule="evenodd"/></g><path fill="#ffffff" d="M 1591.742188 374.96875 C 1591.742188 371.851562 1589.230469 369.324219 1586.128906 369.324219 L 1546.828125 369.324219 C 1543.726562 369.324219 1541.210938 371.851562 1541.210938 374.96875 C 1541.210938 378.066406 1543.726562 380.59375 1546.828125 380.59375 L 1586.128906 380.59375 C 1589.230469 380.59375 1591.742188 378.066406 1591.742188 374.96875 Z M 1490.679688 374.96875 C 1490.679688 371.851562 1488.167969 369.324219 1485.066406 369.324219 L 1445.765625 369.324219 C 1442.664062 369.324219 1440.152344 371.851562 1440.152344 374.96875 C 1440.152344 378.066406 1442.664062 380.59375 1445.765625 380.59375 L 1485.066406 380.59375 C 1488.167969 380.59375 1490.679688 378.066406 1490.679688 374.96875 Z M 1389.621094 374.96875 C 1389.621094 371.851562 1387.105469 369.324219 1384.003906 369.324219 L 1344.703125 369.324219 C 1341.601562 369.324219 1339.089844 371.851562 1339.089844 374.96875 C 1339.089844 378.066406 1341.601562 380.59375 1344.703125 380.59375 L 1384.003906 380.59375 C 1387.105469 380.59375 1389.621094 378.066406 1389.621094 374.96875 Z M 1288.558594 374.96875 C 1288.558594 371.851562 1286.042969 369.324219 1282.941406 369.324219 L 1243.640625 369.324219 C 1240.539062 369.324219 1238.027344 371.851562 1238.027344 374.96875 C 1238.027344 378.066406 1240.539062 380.59375 1243.640625 380.59375 L 1282.941406 380.59375 C 1286.042969 380.59375 1288.558594 378.066406 1288.558594 374.96875 Z M 1288.558594 374.96875 " fill-opacity="1" fill-rule="evenodd"/><g clip-path="url(#id12)"><path fill="#ffffff" d="M 219.832031 307.125 L 163.644531 307.125 L 163.644531 330.34375 L 156.042969 330.34375 L 156.042969 307.125 L 99.855469 307.125 L 136.707031 263.414062 L 113.605469 272.921875 L 140.542969 239.355469 L 131.460938 242.515625 L 144.914062 223.195312 L 130.859375 228.570312 L 139.632812 215.265625 L 125.007812 224.132812 L 147.972656 190.566406 L 136.136719 198.496094 L 159.84375 162.34375 L 183.550781 198.464844 L 171.714844 190.535156 L 194.679688 224.101562 L 180.050781 215.230469 L 188.828125 228.535156 L 174.773438 223.160156 L 188.222656 242.480469 L 179.144531 239.320312 L 206.078125 272.886719 L 182.976562 263.378906 Z M 219.832031 307.125 " fill-opacity="1" fill-rule="nonzero"/></g><g clip-path="url(#id13)"><path fill="#ffffff" d="M 515.019531 311.625 L 458.828125 311.625 L 458.828125 334.84375 L 451.230469 334.84375 L 451.230469 311.625 L 395.039062 311.625 L 431.894531 267.914062 L 408.792969 277.421875 L 435.726562 243.855469 L 426.648438 247.015625 L 440.097656 227.695312 L 426.042969 233.070312 L 434.820312 219.765625 L 420.191406 228.632812 L 443.160156 195.066406 L 431.324219 202.996094 L 455.03125 166.84375 L 478.734375 202.964844 L 466.898438 195.035156 L 489.867188 228.601562 L 475.238281 219.730469 L 484.015625 233.035156 L 469.960938 227.660156 L 483.410156 246.980469 L 474.332031 243.820312 L 501.265625 277.386719 L 478.164062 267.878906 Z M 515.019531 311.625 " fill-opacity="1" fill-rule="nonzero"/></g><g clip-path="url(#id14)"><path fill="#ffffff" d="M 622.933594 320.527344 L 580.085938 320.527344 L 580.085938 338.25 L 574.292969 338.25 L 574.292969 320.527344 L 531.445312 320.527344 L 559.546875 287.15625 L 541.933594 294.414062 L 562.472656 268.789062 L 555.546875 271.199219 L 565.804688 256.453125 L 555.085938 260.554688 L 561.777344 250.398438 L 550.625 257.171875 L 568.136719 231.546875 L 559.113281 237.597656 L 577.1875 210 L 595.265625 237.574219 L 586.242188 231.519531 L 603.753906 257.144531 L 592.601562 250.375 L 599.292969 260.53125 L 588.574219 256.425781 L 598.832031 271.175781 L 591.90625 268.765625 L 612.445312 294.386719 L 594.832031 287.128906 Z M 622.933594 320.527344 " fill-opacity="1" fill-rule="nonzero"/></g><g clip-path="url(#id15)"><path fill="#ffffff" d="M 679.765625 261.957031 L 701.492188 261.957031 L 701.492188 283.734375 L 679.765625 283.734375 Z M 679.765625 232.695312 L 701.492188 232.695312 L 701.492188 254.453125 L 679.765625 254.453125 Z M 679.765625 203.414062 L 701.492188 203.414062 L 701.492188 225.191406 L 679.765625 225.191406 Z M 679.765625 174.136719 L 701.492188 174.136719 L 701.492188 195.914062 L 679.765625 195.914062 Z M 679.765625 144.875 L 701.492188 144.875 L 701.492188 166.632812 L 679.765625 166.632812 Z M 679.765625 115.59375 L 701.492188 115.59375 L 701.492188 137.355469 L 679.765625 137.355469 Z M 708.980469 261.957031 L 730.726562 261.957031 L 730.726562 283.734375 L 708.980469 283.734375 Z M 708.980469 232.695312 L 730.726562 232.695312 L 730.726562 254.453125 L 708.980469 254.453125 Z M 708.980469 203.414062 L 730.726562 203.414062 L 730.726562 225.191406 L 708.980469 225.191406 Z M 708.980469 174.136719 L 730.726562 174.136719 L 730.726562 195.914062 L 708.980469 195.914062 Z M 708.980469 144.875 L 730.726562 144.875 L 730.726562 166.632812 L 708.980469 166.632812 Z M 708.980469 115.59375 L 730.726562 115.59375 L 730.726562 137.355469 L 708.980469 137.355469 Z M 738.214844 261.957031 L 759.960938 261.957031 L 759.960938 283.734375 L 738.214844 283.734375 Z M 738.214844 232.695312 L 759.960938 232.695312 L 759.960938 254.453125 L 738.214844 254.453125 Z M 738.214844 203.414062 L 759.960938 203.414062 L 759.960938 225.191406 L 738.214844 225.191406 Z M 738.214844 174.136719 L 759.960938 174.136719 L 759.960938 195.914062 L 738.214844 195.914062 Z M 738.214844 144.875 L 759.960938 144.875 L 759.960938 166.632812 L 738.214844 166.632812 Z M 738.214844 115.59375 L 759.960938 115.59375 L 759.960938 137.355469 L 738.214844 137.355469 Z M 771.578125 321.261719 L 771.578125 101.867188 C 771.578125 101.375 771.160156 100.957031 770.648438 100.957031 L 669.058594 100.957031 C 668.546875 100.957031 668.148438 101.375 668.148438 101.867188 L 668.148438 321.261719 L 655.183594 321.261719 C 654.675781 321.261719 654.277344 321.679688 654.277344 322.171875 L 654.277344 333.441406 C 654.277344 333.769531 654.546875 334.023438 654.875 334.023438 L 784.847656 334.023438 C 785.175781 334.023438 785.429688 333.769531 785.429688 333.441406 L 785.429688 322.171875 C 785.429688 321.679688 785.03125 321.261719 784.523438 321.261719 L 771.578125 321.261719 " fill-opacity="1" fill-rule="nonzero"/></g><g clip-path="url(#id16)"><path fill="#ffffff" d="M 1079.546875 280.257812 L 1028.914062 244.574219 C 1028.679688 244.410156 1028.351562 244.410156 1028.117188 244.574219 L 977.480469 280.257812 C 977.164062 280.488281 976.738281 280.40625 976.519531 280.097656 L 970.546875 271.648438 C 970.328125 271.339844 970.402344 270.902344 970.710938 270.683594 L 1028.117188 230.230469 C 1028.351562 230.058594 1028.679688 230.058594 1028.914062 230.230469 L 1086.320312 270.683594 C 1086.628906 270.902344 1086.703125 271.339844 1086.484375 271.648438 L 1080.519531 280.097656 C 1080.292969 280.40625 1079.855469 280.488281 1079.546875 280.257812 " fill-opacity="1" fill-rule="nonzero"/></g><g clip-path="url(#id17)"><path fill="#ffffff" d="M 1023.222656 297.894531 L 1010.523438 297.894531 C 1010.144531 297.894531 1009.832031 297.585938 1009.832031 297.195312 L 1009.832031 287.449219 C 1009.832031 287.070312 1010.144531 286.75 1010.523438 286.75 L 1023.222656 286.75 C 1023.605469 286.75 1023.921875 287.070312 1023.921875 287.449219 L 1023.921875 297.195312 C 1023.921875 297.585938 1023.605469 297.894531 1023.222656 297.894531 Z M 1023.222656 310.496094 L 1010.523438 310.496094 C 1010.144531 310.496094 1009.832031 310.1875 1009.832031 309.796875 L 1009.832031 300.050781 C 1009.832031 299.671875 1010.144531 299.355469 1010.523438 299.355469 L 1023.222656 299.355469 C 1023.605469 299.355469 1023.921875 299.671875 1023.921875 300.050781 L 1023.921875 309.796875 C 1023.921875 310.1875 1023.605469 310.496094 1023.222656 310.496094 Z M 1007.671875 297.894531 L 994.972656 297.894531 C 994.59375 297.894531 994.285156 297.585938 994.285156 297.195312 L 994.285156 287.449219 C 994.285156 287.070312 994.59375 286.75 994.972656 286.75 L 1007.671875 286.75 C 1008.054688 286.75 1008.363281 287.070312 1008.363281 287.449219 L 1008.363281 297.195312 C 1008.363281 297.585938 1008.054688 297.894531 1007.671875 297.894531 Z M 1007.671875 310.496094 L 994.972656 310.496094 C 994.59375 310.496094 994.285156 310.1875 994.285156 309.796875 L 994.285156 300.050781 C 994.285156 299.671875 994.59375 299.355469 994.972656 299.355469 L 1007.671875 299.355469 C 1008.054688 299.355469 1008.363281 299.671875 1008.363281 300.050781 L 1008.363281 309.796875 C 1008.363281 310.1875 1008.054688 310.496094 1007.671875 310.496094 Z M 1028.117188 246.6875 L 983.617188 278.046875 C 983.4375 278.175781 983.328125 278.390625 983.328125 278.609375 L 983.328125 329.925781 C 983.328125 330.304688 983.636719 330.613281 984.019531 330.613281 L 1050.320312 330.613281 C 1050.699219 330.613281 1051.007812 330.304688 1051.007812 329.925781 L 1051.007812 287.449219 C 1051.007812 287.070312 1051.328125 286.75 1051.707031 286.75 L 1068.21875 286.75 C 1068.601562 286.75 1068.910156 287.070312 1068.910156 287.449219 L 1068.910156 329.925781 C 1068.910156 330.304688 1069.226562 330.613281 1069.601562 330.613281 L 1073.011719 330.613281 C 1073.394531 330.613281 1073.703125 330.304688 1073.703125 329.925781 L 1073.703125 278.609375 C 1073.703125 278.390625 1073.59375 278.175781 1073.414062 278.046875 L 1028.914062 246.6875 C 1028.679688 246.515625 1028.351562 246.515625 1028.117188 246.6875 " fill-opacity="1" fill-rule="nonzero"/></g><g clip-path="url(#id18)"><path fill="#ffffff" d="M 944.996094 307.742188 L 888.804688 307.742188 L 888.804688 330.960938 L 881.207031 330.960938 L 881.207031 307.742188 L 825.015625 307.742188 L 861.871094 264.027344 L 838.769531 273.539062 L 865.703125 239.972656 L 856.625 243.128906 L 870.078125 223.808594 L 856.019531 229.1875 L 864.796875 215.878906 L 850.167969 224.75 L 873.136719 191.183594 L 861.300781 199.113281 L 885.007812 162.960938 L 908.714844 199.078125 L 896.875 191.152344 L 919.84375 224.71875 L 905.214844 215.847656 L 913.992188 229.152344 L 899.9375 223.777344 L 913.386719 243.097656 L 904.308594 239.9375 L 931.242188 273.503906 L 908.140625 263.996094 Z M 944.996094 307.742188 " fill-opacity="1" fill-rule="nonzero"/></g><g clip-path="url(#id19)"><path fill="#ffffff" d="M 1240.183594 312.242188 L 1183.992188 312.242188 L 1183.992188 335.460938 L 1176.394531 335.460938 L 1176.394531 312.242188 L 1120.203125 312.242188 L 1157.058594 268.527344 L 1133.957031 278.039062 L 1160.890625 244.472656 L 1151.8125 247.628906 L 1165.261719 228.308594 L 1151.207031 233.6875 L 1159.984375 220.378906 L 1145.355469 229.25 L 1168.324219 195.683594 L 1156.484375 203.613281 L 1180.191406 167.460938 L 1203.898438 203.578125 L 1192.0625 195.652344 L 1215.03125 229.21875 L 1200.402344 220.347656 L 1209.179688 233.652344 L 1195.121094 228.277344 L 1208.574219 247.597656 L 1199.492188 244.4375 L 1226.429688 278.003906 L 1203.328125 268.496094 Z M 1240.183594 312.242188 " fill-opacity="1" fill-rule="nonzero"/></g><g clip-path="url(#id20)"><path fill="#ffffff" d="M 1348.097656 321.140625 L 1305.25 321.140625 L 1305.25 338.867188 L 1299.453125 338.867188 L 1299.453125 321.140625 L 1256.609375 321.140625 L 1284.710938 287.769531 L 1267.09375 295.03125 L 1287.632812 269.40625 L 1280.710938 271.816406 L 1290.96875 257.066406 L 1280.25 261.171875 L 1286.941406 251.015625 L 1275.789062 257.785156 L 1293.300781 232.160156 L 1284.273438 238.214844 L 1302.351562 210.617188 L 1320.429688 238.191406 L 1311.402344 232.136719 L 1328.917969 257.761719 L 1317.761719 250.988281 L 1324.457031 261.144531 L 1313.738281 257.042969 L 1323.992188 271.789062 L 1317.070312 269.378906 L 1337.609375 295.003906 L 1319.992188 287.746094 Z M 1348.097656 321.140625 " fill-opacity="1" fill-rule="nonzero"/></g><g clip-path="url(#id21)"><path fill="#ffffff" d="M 1396.03125 261.957031 L 1417.757812 261.957031 L 1417.757812 283.734375 L 1396.03125 283.734375 Z M 1396.03125 232.695312 L 1417.757812 232.695312 L 1417.757812 254.453125 L 1396.03125 254.453125 Z M 1396.03125 203.414062 L 1417.757812 203.414062 L 1417.757812 225.191406 L 1396.03125 225.191406 Z M 1396.03125 174.136719 L 1417.757812 174.136719 L 1417.757812 195.914062 L 1396.03125 195.914062 Z M 1396.03125 144.875 L 1417.757812 144.875 L 1417.757812 166.632812 L 1396.03125 166.632812 Z M 1396.03125 115.59375 L 1417.757812 115.59375 L 1417.757812 137.355469 L 1396.03125 137.355469 Z M 1425.25 261.957031 L 1446.992188 261.957031 L 1446.992188 283.734375 L 1425.25 283.734375 Z M 1425.25 232.695312 L 1446.992188 232.695312 L 1446.992188 254.453125 L 1425.25 254.453125 Z M 1425.25 203.414062 L 1446.992188 203.414062 L 1446.992188 225.191406 L 1425.25 225.191406 Z M 1425.25 174.136719 L 1446.992188 174.136719 L 1446.992188 195.914062 L 1425.25 195.914062 Z M 1425.25 144.875 L 1446.992188 144.875 L 1446.992188 166.632812 L 1425.25 166.632812 Z M 1425.25 115.59375 L 1446.992188 115.59375 L 1446.992188 137.355469 L 1425.25 137.355469 Z M 1454.484375 261.957031 L 1476.226562 261.957031 L 1476.226562 283.734375 L 1454.484375 283.734375 Z M 1454.484375 232.695312 L 1476.226562 232.695312 L 1476.226562 254.453125 L 1454.484375 254.453125 Z M 1454.484375 203.414062 L 1476.226562 203.414062 L 1476.226562 225.191406 L 1454.484375 225.191406 Z M 1454.484375 174.136719 L 1476.226562 174.136719 L 1476.226562 195.914062 L 1454.484375 195.914062 Z M 1454.484375 144.875 L 1476.226562 144.875 L 1476.226562 166.632812 L 1454.484375 166.632812 Z M 1454.484375 115.59375 L 1476.226562 115.59375 L 1476.226562 137.355469 L 1454.484375 137.355469 Z M 1487.84375 321.261719 L 1487.84375 101.867188 C 1487.84375 101.375 1487.425781 100.957031 1486.917969 100.957031 L 1385.324219 100.957031 C 1384.816406 100.957031 1384.414062 101.375 1384.414062 101.867188 L 1384.414062 321.261719 L 1371.453125 321.261719 C 1370.941406 321.261719 1370.542969 321.679688 1370.542969 322.171875 L 1370.542969 333.441406 C 1370.542969 333.769531 1370.816406 334.023438 1371.144531 334.023438 L 1501.117188 334.023438 C 1501.445312 334.023438 1501.699219 333.769531 1501.699219 333.441406 L 1501.699219 322.171875 C 1501.699219 321.679688 1501.296875 321.261719 1500.789062 321.261719 L 1487.84375 321.261719 " fill-opacity="1" fill-rule="nonzero"/></g></svg>